<?xml version="1.0" encoding="UTF-8"?>
<svg version="1.1" xmlns="http://www.w3.org/2000/svg" width="512" height="512">
<path d="M0 0 C4.59811704 3.25232668 7.0637798 8.12988127 10.00390625 12.859375 C21.19867977 30.47306954 34.72389437 47.08093471 49.6875 61.625 C52 64 52 64 52 66 C52.83337891 66.33837891 52.83337891 66.33837891 53.68359375 66.68359375 C56.68440319 68.38894414 58.67937537 70.56706316 61.0625 73.0625 C67.63505835 79.78844361 74.82442315 85.56531905 82.2734375 91.28515625 C112.99812783 114.89551119 133.75239167 141.47623864 140.25 180.6875 C144.69951586 218.468657 139.37613667 260.45122048 116.84765625 292.015625 C114.66106608 294.78346066 112.38424647 297.40074901 110 300 C109.56349121 300.4842041 109.12698242 300.9684082 108.67724609 301.46728516 C89.02572273 323.05969972 63.21194542 332.37460554 35.0625 337.4375 C13.38291487 341.35988224 -6.53371071 348.22577186 -24 362 C-24.81597656 362.6084375 -25.63195312 363.216875 -26.47265625 363.84375 C-41.30054735 376.49443916 -49.45769182 395.87537861 -51 415 C-50.96529632 416.70848896 -50.92329616 418.41684123 -50.875 420.125 C-50.82152148 424.46344513 -51.54314649 427.31471973 -54 431 C-57.19750701 432.59875351 -60.52958991 432.50166324 -64 432 C-67.23054468 429.68063459 -68.3579458 427.84590467 -69 424 C-69.15308622 396.47509841 -59.54384524 372.61444048 -40.65234375 352.55859375 C-19.81823336 332.46088785 7.45990767 324.19773688 35.1328125 318.796875 C62.76373313 313.36914141 87.37140254 302.66744908 104.1953125 278.8984375 C122.97770998 249.54647794 128.27374212 209.79965838 120.96484375 175.8828125 C113.77001986 146.01946709 96.41525212 124.26968203 72.1796875 106.16015625 C53.28518242 92.00004722 34.63535655 75.2001156 20.05078125 56.60546875 C17.88253783 53.85076711 15.60325431 51.21592624 13.3125 48.5625 C8.83192581 43.19843231 4.76318739 37.59565661 0.75 31.875 C0.17161377 31.05201416 -0.40677246 30.22902832 -1.00268555 29.38110352 C-13.31558253 11.63037866 -13.31558253 11.63037866 -12 4 C-9.21018411 -0.64969315 -5.04870786 -1.11517643 0 0 Z " fill="#000000" transform="translate(172,64)"/>
<path d="M0 0 C1.90625 0.36328125 1.90625 0.36328125 4.40625 1.67578125 C7.35545759 6.95977818 6.19460363 13.24261344 5.40405273 19.05664062 C4.88830686 23.14241737 4.7296258 27.20073782 4.703125 31.31640625 C4.69611069 32.05018494 4.68909637 32.78396362 4.68186951 33.53997803 C4.66445332 35.89780891 4.65801614 38.25538838 4.65625 40.61328125 C4.65557526 41.42007324 4.65490051 42.22686523 4.65420532 43.05810547 C4.67060272 55.3987536 5.20138523 67.28033117 7.90625 79.36328125 C8.08317383 80.18103027 8.26009766 80.9987793 8.44238281 81.84130859 C12.05512179 98.22966596 17.44158237 113.29795076 24.41851807 128.54074097 C30.52355792 141.88004789 35.80156203 155.25655768 39.90625 169.36328125 C40.28523438 170.6059375 40.66421875 171.84859375 41.0546875 173.12890625 C45.3662345 190.13776139 45.05680983 212.62396181 39.90625 229.36328125 C39.71289062 230.01973633 39.51953125 230.67619141 39.3203125 231.35253906 C35.39904692 244.44157833 29.41150844 256.3299769 21.34375 267.36328125 C5.32610289 289.56448515 1.73874171 317.14626613 5.5546875 343.84765625 C7.63232951 355.2095389 11.77969486 368.14533912 21.328125 375.28515625 C22.10929687 375.81882812 22.10929687 375.81882812 22.90625 376.36328125 C26.68646148 379.27113623 26.68646148 379.27113623 27.28515625 382.24609375 C27.48582041 385.75448002 27.23386102 387.81726288 25.40625 390.86328125 C21.83757213 393.00448797 18.87923757 393.28120254 14.90625 392.36328125 C2.80651349 386.56932959 -3.28728602 375.35929112 -8.09375 363.36328125 C-17.76490403 334.59597044 -16.04280433 299.17098593 -2.90625 271.86328125 C-0.2809869 266.79380768 2.68842587 262.07342961 5.90625 257.36328125 C22.09630101 233.46098177 29.13888053 208.10385367 23.875 179.203125 C20.43152304 163.39182663 13.47800389 148.52711711 6.84375 133.86328125 C-6.06293897 105.21947143 -13.48992099 75.58883088 -13.40942383 44.07568359 C-13.40626185 41.49794207 -13.42983636 38.9213511 -13.45507812 36.34375 C-13.4880823 28.08364195 -13.1625716 20.01723618 -11.82421875 11.85546875 C-11.71612381 11.15575958 -11.60802887 10.45605042 -11.49665833 9.73513794 C-10.1781162 2.6577796 -7.08004009 -0.46231605 0 0 Z " fill="#000000" transform="translate(77.09375,119.63671875)"/>
<path d="M0 0 C2.5 1.5 2.5 1.5 4 4 C4.45364856 7.1755399 4.68938436 8.98847886 4 12 C1.9375 14.5625 1.9375 14.5625 -1 17 C-10.40580594 25.2217021 -17.03246171 36.40748127 -18.29931641 48.9675293 C-18.43669648 52.1300185 -18.45869152 55.27225818 -18.4375 58.4375 C-18.45748047 59.49259766 -18.47746094 60.54769531 -18.49804688 61.63476562 C-18.49340872 69.17176809 -16.96521385 75.10541458 -14 82 C-10.5043538 90.15292015 -10.73756664 100.41044499 -13.5625 108.8125 C-15.63723648 113.73258936 -18.44373331 118.12717838 -21.390625 122.56640625 C-24.66766445 127.52173532 -26.52035779 132.30906841 -28 138 C-26.1746875 138.3403125 -26.1746875 138.3403125 -24.3125 138.6875 C-7.74625935 142.38061097 -7.74625935 142.38061097 -4 148 C-3.77294922 150.17651367 -3.77294922 150.17651367 -3.8046875 152.66796875 C-3.81113281 153.56064453 -3.81757813 154.45332031 -3.82421875 155.37304688 C-3.84097656 156.30181641 -3.85773438 157.23058594 -3.875 158.1875 C-3.88402344 159.12787109 -3.89304688 160.06824219 -3.90234375 161.03710938 C-3.92590944 163.35832968 -3.95880884 165.67903644 -4 168 C-3.04996094 168.10441406 -2.09992188 168.20882812 -1.12109375 168.31640625 C2 169 2 169 3.9375 171.9375 C5.88157853 177.6416825 5.14398304 183.22175548 2.87890625 188.72265625 C1.65276762 191.19312548 0.35310211 193.59729531 -1 196 C-1.67391785 197.32968303 -2.34312796 198.66181416 -3 200 C-1.01463852 202.90276785 0.26956621 204.72032941 3.6015625 205.99609375 C17.91683334 208.08604931 31.09107507 205.9539927 44.54345703 200.85742188 C49.70541631 198.99745825 52.75274398 198.7439334 58 201 C64.91307848 205.51285763 69.3506967 211.71312749 73 219 C73.32871094 219.64582031 73.65742188 220.29164063 73.99609375 220.95703125 C79.82999791 234.21590434 76.96575578 251.03509942 72.19140625 264.16015625 C63.83289817 284.08355091 63.83289817 284.08355091 56 288 C48.9478673 288.56872038 48.9478673 288.56872038 45.5 286.5 C43.86880114 283.78133524 43.14057103 281.65818948 43.27734375 278.46484375 C44.4644144 274.41597034 47.04250287 271.27694279 49.50097656 267.91357422 C56.70667443 258.02066858 59.52595405 246.4806589 58.84765625 234.25390625 C57.88831421 228.98209331 55.50000669 224.07122439 52 220 C48.74916759 218.9163892 48.14510044 219.03786268 45.02734375 219.99609375 C34.75271417 222.9274396 25.08612728 224.52010869 14.375 224.5625 C12.77773071 224.58364868 12.77773071 224.58364868 11.14819336 224.60522461 C1.66715928 224.48744319 -7.54780067 222.40334415 -14.57983398 215.6796875 C-19.4378088 209.93396518 -20.64719074 204.10953705 -20.5 196.75 C-20.51546875 195.96109375 -20.5309375 195.1721875 -20.546875 194.359375 C-20.52087632 190.51157092 -20.4512617 188.60291522 -18.09375 185.453125 C-16 184 -16 184 -14 184 C-14.433125 183.278125 -14.86625 182.55625 -15.3125 181.8125 C-15.869375 180.884375 -16.42625 179.95625 -17 179 C-17.5259375 178.2884375 -18.051875 177.576875 -18.59375 176.84375 C-20.44222846 173.10571578 -20.32922295 169.75385842 -20.1875 165.6875 C-20.16719727 164.57665039 -20.16719727 164.57665039 -20.14648438 163.44335938 C-20.11135979 161.62858925 -20.05755972 159.81419712 -20 158 C-21.8253125 157.6596875 -21.8253125 157.6596875 -23.6875 157.3125 C-40.25374065 153.61938903 -40.25374065 153.61938903 -44 148 C-46.43958563 131.96023697 -41.71427596 120.14526373 -33 107 C-30.29105072 102.30448791 -28.16558922 97.53950266 -29.46826172 92.01367188 C-30.20100175 89.93162403 -31.0111297 87.90605505 -31.875 85.875 C-32.43834121 84.49880115 -32.998327 83.12122324 -33.5546875 81.7421875 C-33.80718262 81.1426123 -34.05967773 80.54303711 -34.31982422 79.92529297 C-39.97067079 63.93011131 -37.35366482 41.80302788 -30.4921875 26.67578125 C-24.80209634 15.28236616 -14.83121075 -2.47186846 0 0 Z " fill="#000000" transform="translate(156,88)"/>
<path d="M0 0 C0.79548248 0.00304138 1.59096497 0.00608276 2.41055298 0.00921631 C64.15521225 0.35475481 127.13902137 21.97645255 171.53125 65.68701172 C187.25 81.69602273 187.25 81.69602273 187.25 90.1875 C186.25 93.4375 186.25 93.4375 184.6875 95.375 C180.93190249 97.01205532 178.13178663 97.809109 174.25 96.4375 C170.46955989 93.13627061 167.39437893 89.3369436 164.25 85.4375 C149.61233926 68.29923888 133.06762224 56.05074908 113.25 45.4375 C112.58516602 45.0770459 111.92033203 44.7165918 111.23535156 44.34521484 C68.62703834 21.628748 8.78253999 9.15679173 -38.22265625 22.96484375 C-49.30695736 26.44915434 -59.47772546 31.5640526 -69.4362793 37.50488281 C-72.84415859 39.51268031 -75.76976008 41.11852607 -79.75 41.4375 C-82.9375 40.4375 -82.9375 40.4375 -85.75 38.4375 C-87.3125 35.125 -87.3125 35.125 -87.75 31.4375 C-85.84169297 26.12651317 -82.96428164 23.73789444 -78.1875 21.0625 C-77.53056152 20.68383789 -76.87362305 20.30517578 -76.19677734 19.91503906 C-52.48880754 6.56923558 -27.18116079 -0.22305213 0 0 Z " fill="#000000" transform="translate(214.75,-0.43750000000000006)"/>
<path d="M0 0 C0.66 -0.0103125 1.32 -0.020625 2 -0.03125 C5.05303503 0.77971243 6.12598221 1.95356394 8 4.5 C8.79066486 7.2969301 9.10192869 10.11778879 9.4375 13 C11.04962783 24.24199506 13.94222584 34.92440707 23 42.5 C28.69031039 46.16197239 34.65488628 47.11750445 41.30078125 47.8125 C44.63258232 48.66112082 45.92266857 49.78833194 48 52.5 C48.53125 54.5 48.53125 54.5 48.5 56.5 C48.51546875 57.49 48.51546875 57.49 48.53125 58.5 C47.7340091 61.50137752 46.46385933 62.6282617 44 64.5 C40.609375 65.37109375 40.609375 65.37109375 36.75 65.9375 C28.48543298 67.3650974 23.09880061 69.63687011 17.75 76.1875 C12.20507621 84.31704951 10.37100197 92.6228487 9.21411133 102.25537109 C8.72391174 105.86675429 8.35021094 108.02365377 6.15625 111.0078125 C3.85487372 112.60043159 2.76575879 113.04321498 0 113 C-0.99 113.01546875 -0.99 113.01546875 -2 113.03125 C-5.05303503 112.22028757 -6.12598221 111.04643606 -8 108.5 C-8.79065872 105.70309161 -9.10219049 102.88222856 -9.4375 100 C-10.92955449 89.53879482 -13.45163555 78.5265677 -22 71.5 C-28.13356435 67.39632725 -34.03896967 65.85508603 -41.3359375 65.15234375 C-44.66173488 64.33796228 -45.93146579 63.19871556 -48 60.5 C-48.53125 58.5 -48.53125 58.5 -48.5 56.5 C-48.5103125 55.84 -48.520625 55.18 -48.53125 54.5 C-47.7340091 51.49862248 -46.46385933 50.3717383 -44 48.5 C-40.609375 47.62890625 -40.609375 47.62890625 -36.75 47.0625 C-28.48543298 45.6349026 -23.09880061 43.36312989 -17.75 36.8125 C-12.20507621 28.68295049 -10.37100197 20.3771513 -9.21411133 10.74462891 C-8.72391174 7.13324571 -8.35021094 4.97634623 -6.15625 1.9921875 C-3.85487372 0.39956841 -2.76575879 -0.04321498 0 0 Z M-1 42.5 C-2.8484977 44.92672235 -4.4770431 47.46826182 -6.1484375 50.01953125 C-7.9213751 52.39466918 -9.54602835 53.8730276 -12 55.5 C-10.88809049 58.22923244 -9.73810464 59.76189536 -7.625 61.875 C-5 64.5 -5 64.5 -2.8125 67.8125 C-1.9153125 69.1428125 -1.9153125 69.1428125 -1 70.5 C-0.34 70.5 0.32 70.5 1 70.5 C2.36363208 68.52053408 3.69418644 66.5180755 5 64.5 C6 63.5 7 62.5 8 61.5 C8 60.84 8 60.18 8 59.5 C9.32 58.84 10.64 58.18 12 57.5 C11.34 56.18 10.68 54.86 10 53.5 C9.34 53.5 8.68 53.5 8 53.5 C7.6596875 52.7265625 7.6596875 52.7265625 7.3125 51.9375 C5.51782382 48.60452995 3.50034985 45.35296329 1 42.5 C0.34 42.5 -0.32 42.5 -1 42.5 Z " fill="#000000" transform="translate(376,319.5)"/>
<path d="M0 0 C0.66 -0.0103125 1.32 -0.020625 2 -0.03125 C5.05303503 0.77971243 6.12598221 1.95356394 8 4.5 C8.79066486 7.2969301 9.10192869 10.11778879 9.4375 13 C11.04962783 24.24199506 13.94222584 34.92440707 23 42.5 C28.69031039 46.16197239 34.65488628 47.11750445 41.30078125 47.8125 C44.63258232 48.66112082 45.92266857 49.78833194 48 52.5 C48.53125 54.5 48.53125 54.5 48.5 56.5 C48.51546875 57.49 48.51546875 57.49 48.53125 58.5 C47.7340091 61.50137752 46.46385933 62.6282617 44 64.5 C40.609375 65.37109375 40.609375 65.37109375 36.75 65.9375 C28.48543298 67.3650974 23.09880061 69.63687011 17.75 76.1875 C12.20507621 84.31704951 10.37100197 92.6228487 9.21411133 102.25537109 C8.72391174 105.86675429 8.35021094 108.02365377 6.15625 111.0078125 C3.85487372 112.60043159 2.76575879 113.04321498 0 113 C-0.99 113.01546875 -0.99 113.01546875 -2 113.03125 C-5.05303503 112.22028757 -6.12598221 111.04643606 -8 108.5 C-8.79065872 105.70309161 -9.10219049 102.88222856 -9.4375 100 C-10.92955449 89.53879482 -13.45163555 78.5265677 -22 71.5 C-28.13356435 67.39632725 -34.03896967 65.85508603 -41.3359375 65.15234375 C-44.66173488 64.33796228 -45.93146579 63.19871556 -48 60.5 C-48.53125 58.5 -48.53125 58.5 -48.5 56.5 C-48.5103125 55.84 -48.520625 55.18 -48.53125 54.5 C-47.7340091 51.49862248 -46.46385933 50.3717383 -44 48.5 C-40.609375 47.62890625 -40.609375 47.62890625 -36.75 47.0625 C-28.48543298 45.6349026 -23.09880061 43.36312989 -17.75 36.8125 C-12.20507621 28.68295049 -10.37100197 20.3771513 -9.21411133 10.74462891 C-8.72391174 7.13324571 -8.35021094 4.97634623 -6.15625 1.9921875 C-3.85487372 0.39956841 -2.76575879 -0.04321498 0 0 Z M-1 42.5 C-2.8484977 44.92672235 -4.4770431 47.46826182 -6.1484375 50.01953125 C-7.9213751 52.39466918 -9.54602835 53.8730276 -12 55.5 C-10.88809049 58.22923244 -9.73810464 59.76189536 -7.625 61.875 C-5 64.5 -5 64.5 -2.8125 67.8125 C-1.9153125 69.1428125 -1.9153125 69.1428125 -1 70.5 C-0.34 70.5 0.32 70.5 1 70.5 C2.36363208 68.52053408 3.69418644 66.5180755 5 64.5 C6 63.5 7 62.5 8 61.5 C8 60.84 8 60.18 8 59.5 C9.32 58.84 10.64 58.18 12 57.5 C11.34 56.18 10.68 54.86 10 53.5 C9.34 53.5 8.68 53.5 8 53.5 C7.6596875 52.7265625 7.6596875 52.7265625 7.3125 51.9375 C5.51782382 48.60452995 3.50034985 45.35296329 1 42.5 C0.34 42.5 -0.32 42.5 -1 42.5 Z " fill="#000000" transform="translate(424,71.5)"/>
<path d="M0 0 C0.66 -0.0103125 1.32 -0.020625 2 -0.03125 C5.05303503 0.77971243 6.12598221 1.95356394 8 4.5 C8.79066486 7.2969301 9.10192869 10.11778879 9.4375 13 C11.04962783 24.24199506 13.94222584 34.92440707 23 42.5 C28.69031039 46.16197239 34.65488628 47.11750445 41.30078125 47.8125 C44.63258232 48.66112082 45.92266857 49.78833194 48 52.5 C48.53125 54.5 48.53125 54.5 48.5 56.5 C48.51546875 57.49 48.51546875 57.49 48.53125 58.5 C47.7340091 61.50137752 46.46385933 62.6282617 44 64.5 C40.609375 65.37109375 40.609375 65.37109375 36.75 65.9375 C28.48543298 67.3650974 23.09880061 69.63687011 17.75 76.1875 C12.20507621 84.31704951 10.37100197 92.6228487 9.21411133 102.25537109 C8.72391174 105.86675429 8.35021094 108.02365377 6.15625 111.0078125 C3.85487372 112.60043159 2.76575879 113.04321498 0 113 C-0.99 113.01546875 -0.99 113.01546875 -2 113.03125 C-5.05303503 112.22028757 -6.12598221 111.04643606 -8 108.5 C-8.79065872 105.70309161 -9.10219049 102.88222856 -9.4375 100 C-10.92955449 89.53879482 -13.45163555 78.5265677 -22 71.5 C-28.13356435 67.39632725 -34.03896967 65.85508603 -41.3359375 65.15234375 C-44.66173488 64.33796228 -45.93146579 63.19871556 -48 60.5 C-48.53125 58.5 -48.53125 58.5 -48.5 56.5 C-48.5103125 55.84 -48.520625 55.18 -48.53125 54.5 C-47.7340091 51.49862248 -46.46385933 50.3717383 -44 48.5 C-40.609375 47.62890625 -40.609375 47.62890625 -36.75 47.0625 C-28.48543298 45.6349026 -23.09880061 43.36312989 -17.75 36.8125 C-12.20507621 28.68295049 -10.37100197 20.3771513 -9.21411133 10.74462891 C-8.72391174 7.13324571 -8.35021094 4.97634623 -6.15625 1.9921875 C-3.85487372 0.39956841 -2.76575879 -0.04321498 0 0 Z M-1 42.5 C-2.8484977 44.92672235 -4.4770431 47.46826182 -6.1484375 50.01953125 C-7.9213751 52.39466918 -9.54602835 53.8730276 -12 55.5 C-10.88809049 58.22923244 -9.73810464 59.76189536 -7.625 61.875 C-5 64.5 -5 64.5 -2.8125 67.8125 C-1.9153125 69.1428125 -1.9153125 69.1428125 -1 70.5 C-0.34 70.5 0.32 70.5 1 70.5 C2.36363208 68.52053408 3.69418644 66.5180755 5 64.5 C6 63.5 7 62.5 8 61.5 C8 60.84 8 60.18 8 59.5 C9.32 58.84 10.64 58.18 12 57.5 C11.34 56.18 10.68 54.86 10 53.5 C9.34 53.5 8.68 53.5 8 53.5 C7.6596875 52.7265625 7.6596875 52.7265625 7.3125 51.9375 C5.51782382 48.60452995 3.50034985 45.35296329 1 42.5 C0.34 42.5 -0.32 42.5 -1 42.5 Z " fill="#000000" transform="translate(96,7.5)"/>
<path d="M0 0 C2.09838867 1.53710938 2.09838867 1.53710938 4 4 C4.38932736 6.74878378 4.53754458 9.08699216 4.49609375 11.83203125 C4.49890854 12.60743759 4.50172333 13.38284393 4.50462341 14.18174744 C4.50539675 16.72602384 4.47373782 19.268498 4.4375 21.8125 C4.4267746 23.12510803 4.4267746 23.12510803 4.41583252 24.4642334 C4.13029962 58.06831656 -0.84151205 91.05905997 -8.125 123.8125 C-8.35421143 124.86735596 -8.58342285 125.92221191 -8.81958008 127.0090332 C-10.08831148 132.44356025 -11.32794424 136.72885645 -15 141 C-19.02278753 142.24340706 -21.02687998 142.44425045 -24.875 140.6875 C-27 139 -27 139 -28 137 C-28.56327744 128.92915903 -26.73546668 121.80382196 -24.8125 114 C-18.53461107 87.60954852 -14.3972445 60.48361496 -13.76953125 33.34375 C-13.75109161 32.58090195 -13.73265198 31.81805389 -13.71365356 31.03208923 C-13.62425614 27.21602119 -13.55385694 23.40116846 -13.51660156 19.58422852 C-13.49183231 18.17203254 -13.46677964 16.7598415 -13.44140625 15.34765625 C-13.42795166 14.09992432 -13.41449707 12.85219238 -13.40063477 11.56665039 C-12.9322447 7.39680853 -11.91391163 4.71813094 -10 1 C-6.87057535 -0.56471233 -3.38917777 -0.69701958 0 0 Z " fill="#000000" transform="translate(428,192)"/>
<path d="M0 0 C0.76183594 -0.01933594 1.52367187 -0.03867187 2.30859375 -0.05859375 C5.48840255 0.64129484 6.56868907 1.88358285 8.5625 4.4375 C9.8359375 7.5390625 9.8359375 7.5390625 10.9375 11.0625 C15.57675034 24.6973699 22.69252804 35.00490996 35.46484375 41.96875 C43.73769144 45.89131082 52.25058777 46.90271576 61.27734375 47.71484375 C65.01022836 48.53598959 66.33061688 49.37208805 68.5625 52.4375 C69.09375 54.4375 69.09375 54.4375 69.0625 56.4375 C69.07796875 57.4275 69.07796875 57.4275 69.09375 58.4375 C68.28626233 61.47745358 67.10457589 62.59459601 64.5625 64.4375 C61.79063606 64.84859433 59.51244182 65.00870493 56.75 64.9375 C55.62428589 64.91937256 55.62428589 64.91937256 54.47583008 64.90087891 C37.08931512 64.29698985 21.9118263 57.32161415 9.89501953 44.87548828 C2.00701698 36.36315134 -8.0749674 21.29493389 -8.51953125 9.20703125 C-7.79018662 3.91135503 -7.79018662 3.91135503 -6.1640625 1.7265625 C-3.98607058 0.10045993 -2.69966855 0.00455256 0 0 Z " fill="#000000" transform="translate(387.4375,447.5625)"/>
</svg>
