<?xml version="1.0" encoding="UTF-8"?>
<svg version="1.1" xmlns="http://www.w3.org/2000/svg" width="40" height="41">
<path d="M0 0 C13.2 0 26.4 0 40 0 C40 13.53 40 27.06 40 41 C26.8 41 13.6 41 0 41 C0 27.47 0 13.94 0 0 Z " fill="#EE4E67" transform="translate(0,0)"/>
<path d="M0 0 C1.32 0.33 2.64 0.66 4 1 C4.185625 2.11375 4.37125 3.2275 4.5625 4.375 C5.036875 5.57125 5.51125 6.7675 6 8 C9.51400668 9.54086322 9.51400668 9.54086322 13 10 C13 10.99 13 11.98 13 13 C12.44570313 13.13535156 11.89140625 13.27070313 11.3203125 13.41015625 C9.01899667 14.09399921 7.06968946 14.77508175 5 16 C3.38864654 19.54863159 3.38864654 19.54863159 3 23 C2.01 23 1.02 23 0 23 C-0.165 21.906875 -0.33 20.81375 -0.5 19.6875 C-1.56869679 15.99455496 -1.56869679 15.99455496 -3.9140625 14.8671875 C-5.92903553 14.13382276 -7.9175375 13.50850828 -10 13 C-9.67 11.68 -9.34 10.36 -9 9 C-7.329375 8.7215625 -7.329375 8.7215625 -5.625 8.4375 C-4.42875 7.963125 -3.2325 7.48875 -2 7 C-0.45913678 3.48599332 -0.45913678 3.48599332 0 0 Z " fill="#FCDFE3" transform="translate(19,9)"/>
<path d="M0 0 C2.31 0.33 4.62 0.66 7 1 C7 1.99 7 2.98 7 4 C6.44570313 4.13535156 5.89140625 4.27070313 5.3203125 4.41015625 C3.01899667 5.09399921 1.06968946 5.77508175 -1 7 C-2.61135346 10.54863159 -2.61135346 10.54863159 -3 14 C-3.99 14 -4.98 14 -6 14 C-5.67 13.01 -5.34 12.02 -5 11 C-4.731875 9.824375 -4.46375 8.64875 -4.1875 7.4375 C-3 4 -3 4 -0.875 2.5625 C0.053125 2.2840625 0.053125 2.2840625 1 2 C0.67 1.34 0.34 0.68 0 0 Z " fill="#FCE9EC" transform="translate(25,18)"/>
<path d="M0 0 C0.33 0 0.66 0 1 0 C1.33 2.31 1.66 4.62 2 7 C4.97 7.495 4.97 7.495 8 8 C4.25 10 4.25 10 2 10 C1.67 11.98 1.34 13.96 1 16 C-1 12.25 -1 12.25 -1 10 C-3.31 9.67 -5.62 9.34 -8 9 C-8 8.67 -8 8.34 -8 8 C-4.535 7.505 -4.535 7.505 -1 7 C-0.67 4.69 -0.34 2.38 0 0 Z " fill="#EF586F" transform="translate(20,12)"/>
<path d="M0 0 C1.65 0.33 3.3 0.66 5 1 C4.67 2.65 4.34 4.3 4 6 C2.35 5.67 0.7 5.34 -1 5 C-0.67 3.35 -0.34 1.7 0 0 Z " fill="#FBDBE0" transform="translate(10,26)"/>
<path d="M0 0 C0.66 0 1.32 0 2 0 C2 0.66 2 1.32 2 2 C2.66 2 3.32 2 4 2 C4 2.66 4 3.32 4 4 C3.34 4 2.68 4 2 4 C2 4.66 2 5.32 2 6 C1.34 6 0.68 6 0 6 C0 5.34 0 4.68 0 4 C-0.66 4 -1.32 4 -2 4 C-2 3.34 -2 2.68 -2 2 C-1.34 2 -0.68 2 0 2 C0 1.34 0 0.68 0 0 Z " fill="#FDEFF1" transform="translate(28,9)"/>
<path d="M0 0 C1.98 0 3.96 0 6 0 C4.75 2 4.75 2 3 4 C1.68 4 0.36 4 -1 4 C-0.67 2.68 -0.34 1.36 0 0 Z " fill="#FDEBEE" transform="translate(10,18)"/>
</svg>
